<svg width="100" height="100" viewBox="0 0 100 100" fill="none" xmlns="http://www.w3.org/2000/svg">
<circle cx="50" cy="50" r="50" fill="#C5ECFF"/>
<path d="M67.376 64.136C67.3333 64.8613 67.2267 65.6293 67.056 66.44C66.928 67.2507 66.5227 67.912 65.84 68.424C65.328 68.8507 64.752 69.1067 64.112 69.192C63.472 69.2773 62.832 69.2347 62.192 69.064C61.5947 68.936 61.0187 68.7227 60.464 68.424C59.9093 68.0827 59.4613 67.6773 59.12 67.208C57.6693 65.416 56.3253 63.5813 55.088 61.704C53.8933 59.784 52.6773 57.864 51.44 55.944L46.064 47.816C45.3387 46.664 44.5707 45.384 43.76 43.976C42.9493 42.5253 42.1173 41.1813 41.264 39.944L41.072 64.392V64.968C41.072 65.6507 40.944 66.3333 40.688 67.016C40.4747 67.656 40.0907 68.2107 39.536 68.68C39.1093 69.0213 38.5547 69.256 37.872 69.384C36.8053 69.5973 35.9093 69.5333 35.184 69.192C34.5013 68.8507 33.9467 68.3813 33.52 67.784C33.136 67.1867 32.8587 66.504 32.688 65.736C32.56 64.9253 32.5387 64.136 32.624 63.368V62.28L32.752 57.288L32.816 48.008C32.8587 46.6427 32.88 45.256 32.88 43.848C32.88 42.3973 32.88 40.9253 32.88 39.432C32.8373 37.5973 32.8373 35.656 32.88 33.608C32.9653 31.56 33.0507 29.64 33.136 27.848C33.2213 26.8667 33.456 26.0347 33.84 25.352C34.0107 24.7547 34.4587 24.2427 35.184 23.816C35.6533 23.5173 36.2507 23.3253 36.976 23.24C37.744 23.1547 38.4053 23.176 38.96 23.304C39.1733 23.3893 39.3867 23.496 39.6 23.624C39.8133 23.7093 40.0267 23.816 40.24 23.944C40.4533 24.1147 40.6453 24.2853 40.816 24.456C41.0293 24.6267 41.2213 24.8187 41.392 25.032C41.6053 25.2453 41.7973 25.48 41.968 25.736C42.1387 25.9493 42.3093 26.1627 42.48 26.376C42.608 26.632 42.736 26.8667 42.864 27.08C42.992 27.2933 43.1413 27.5067 43.312 27.72L44.016 28.744L58.8 52.04V47.816C58.8 46.4507 58.7787 45.064 58.736 43.656C58.736 42.2053 58.7147 40.712 58.672 39.176C58.672 37.384 58.672 35.464 58.672 33.416C58.7147 31.368 58.7787 29.448 58.864 27.656C58.864 26.9307 59.0773 26.0987 59.504 25.16C59.7173 24.6053 60.08 24.1573 60.592 23.816C61.104 23.4747 61.68 23.24 62.32 23.112C62.96 22.984 63.6 22.984 64.24 23.112C64.88 23.24 65.4347 23.496 65.904 23.88C66.032 24.008 66.16 24.1573 66.288 24.328C66.416 24.4987 66.5227 24.6907 66.608 24.904C66.8213 25.4587 66.9493 25.9493 66.992 26.376C67.12 26.9733 67.184 27.5067 67.184 27.976C67.184 33.3093 67.184 38.7493 67.184 44.296C67.2267 49.8427 67.2693 55.2827 67.312 60.616C67.312 61.2133 67.3333 61.8107 67.376 62.408C67.4187 62.9627 67.4187 63.5387 67.376 64.136Z" fill="#45474B"/>
</svg>
